<svg width="464" height="140" viewBox="0 0 464 140" fill="none" xmlns="http://www.w3.org/2000/svg">
<path d="M36.4758 99.1606C29.5675 99.1606 23.654 97.7928 18.7353 95.0571C13.8166 92.2937 10.0447 88.4527 7.41952 83.534C4.79436 78.5877 3.48179 72.8538 3.48179 66.3323C3.48179 59.8109 4.79436 54.0908 7.41952 49.1721C10.0447 44.2258 13.8166 40.3847 18.7353 37.6491C23.654 34.8857 29.5675 33.5041 36.4758 33.5041C43.3841 33.5041 49.2977 34.8857 54.2164 37.6491C59.1351 40.3847 62.907 44.2258 65.5322 49.1721C68.1573 54.0908 69.4699 59.8109 69.4699 66.3323C69.4699 72.8538 68.1573 78.5877 65.5322 83.534C62.907 88.4527 59.1351 92.2937 54.2164 95.0571C49.2977 97.7928 43.3841 99.1606 36.4758 99.1606ZM36.6416 82.2491C38.576 82.2491 40.2478 81.5997 41.6571 80.3009C43.0664 79.0022 44.1579 77.1507 44.9316 74.7467C45.7053 72.3426 46.0922 69.4825 46.0922 66.1665C46.0922 62.8229 45.7053 59.9629 44.9316 57.5864C44.1579 55.1823 43.0664 53.3309 41.6571 52.0321C40.2478 50.7334 38.576 50.084 36.6416 50.084C34.5968 50.084 32.8421 50.7334 31.3775 52.0321C29.913 53.3309 28.7938 55.1823 28.0201 57.5864C27.2463 59.9629 26.8595 62.8229 26.8595 66.1665C26.8595 69.4825 27.2463 72.3426 28.0201 74.7467C28.7938 77.1507 29.913 79.0022 31.3775 80.3009C32.8421 81.5997 34.5968 82.2491 36.6416 82.2491ZM120.039 70.1457V34.3331H142.919V98H121.199V85.8967H120.536C119.154 89.9587 116.737 93.1366 113.282 95.4301C109.828 97.696 105.725 98.829 100.972 98.829C96.5228 98.829 92.6265 97.8066 89.2829 95.7617C85.9669 93.7169 83.3832 90.8983 81.5318 87.3059C79.708 83.7136 78.7823 79.5963 78.7547 74.9539V34.3331H101.635V70.1457C101.663 73.2959 102.464 75.7691 104.039 77.5652C105.642 79.3614 107.88 80.2595 110.754 80.2595C112.661 80.2595 114.305 79.8588 115.686 79.0574C117.096 78.2284 118.173 77.0678 118.92 75.5756C119.693 74.0558 120.066 72.2458 120.039 70.1457ZM192.524 34.3331V50.913H150.577V34.3331H192.524ZM158.701 19.0795H181.581V77.5238C181.581 78.4081 181.733 79.1541 182.037 79.7621C182.341 80.3424 182.811 80.7845 183.447 81.0885C184.082 81.3648 184.897 81.503 185.892 81.503C186.583 81.503 187.384 81.4201 188.296 81.2543C189.236 81.0885 189.927 80.9503 190.369 80.8398L193.685 96.9223C192.662 97.2263 191.198 97.5993 189.291 98.0414C187.412 98.4836 185.174 98.7737 182.576 98.9119C177.326 99.1882 172.918 98.6494 169.354 97.2954C165.789 95.9137 163.109 93.7445 161.312 90.7877C159.516 87.831 158.646 84.1281 158.701 79.6792V19.0795Z" fill="white"/>
<path d="M204.231 139.582V52.0401H226.945V63.1487H227.443C228.272 60.9933 229.487 59.0175 231.09 57.2213C232.693 55.3975 234.683 53.9468 237.059 52.8691C239.435 51.7638 242.199 51.2111 245.349 51.2111C249.549 51.2111 253.542 52.3303 257.328 54.5685C261.141 56.8068 264.236 60.3301 266.613 65.1382C269.017 69.9464 270.219 76.1915 270.219 83.8736C270.219 91.224 269.072 97.3171 266.778 102.153C264.513 106.989 261.473 110.595 257.66 112.971C253.874 115.348 249.715 116.536 245.183 116.536C242.199 116.536 239.532 116.052 237.183 115.085C234.862 114.09 232.873 112.75 231.215 111.065C229.584 109.351 228.327 107.417 227.443 105.262H227.111V139.582H204.231ZM226.614 83.8736C226.614 86.9685 227.014 89.6489 227.816 91.9148C228.645 94.1531 229.805 95.894 231.297 97.1375C232.817 98.3534 234.627 98.9613 236.727 98.9613C238.827 98.9613 240.61 98.3672 242.074 97.179C243.567 95.9631 244.7 94.236 245.473 91.9977C246.275 89.7318 246.675 87.0238 246.675 83.8736C246.675 80.7234 246.275 78.0291 245.473 75.7909C244.7 73.5249 243.567 71.7979 242.074 70.6096C240.61 69.3938 238.827 68.7858 236.727 68.7858C234.627 68.7858 232.817 69.3938 231.297 70.6096C229.805 71.7979 228.645 73.5249 227.816 75.7909C227.014 78.0291 226.614 80.7234 226.614 83.8736ZM310.477 116.868C303.569 116.868 297.655 115.5 292.736 112.764C287.818 110.001 284.046 106.16 281.421 101.241C278.795 96.2947 277.483 90.5608 277.483 84.0394C277.483 77.5179 278.795 71.7979 281.421 66.8791C284.046 61.9328 287.818 58.0918 292.736 55.3561C297.655 52.5928 303.569 51.2111 310.477 51.2111C317.385 51.2111 323.299 52.5928 328.217 55.3561C333.136 58.0918 336.908 61.9328 339.533 66.8791C342.158 71.7979 343.471 77.5179 343.471 84.0394C343.471 90.5608 342.158 96.2947 339.533 101.241C336.908 106.16 333.136 110.001 328.217 112.764C323.299 115.5 317.385 116.868 310.477 116.868ZM310.643 99.9561C312.577 99.9561 314.249 99.3067 315.658 98.008C317.067 96.7092 318.159 94.8578 318.933 92.4537C319.706 90.0496 320.093 87.1896 320.093 83.8736C320.093 80.5299 319.706 77.6699 318.933 75.2935C318.159 72.8894 317.067 71.0379 315.658 69.7392C314.249 68.4404 312.577 67.791 310.643 67.791C308.598 67.791 306.843 68.4404 305.379 69.7392C303.914 71.0379 302.795 72.8894 302.021 75.2935C301.247 77.6699 300.861 80.5299 300.861 83.8736C300.861 87.1896 301.247 90.0496 302.021 92.4537C302.795 94.8578 303.914 96.7092 305.379 98.008C306.843 99.3067 308.598 99.9561 310.643 99.9561ZM410.951 72.765H389.895C389.784 71.4663 389.328 70.3471 388.527 69.4076C387.726 68.4681 386.689 67.7496 385.418 67.2522C384.175 66.7272 382.793 66.4646 381.273 66.4646C379.311 66.4646 377.626 66.8239 376.216 67.5423C374.807 68.2608 374.116 69.2832 374.144 70.6096C374.116 71.5492 374.517 72.4196 375.346 73.221C376.203 74.0223 377.847 74.6441 380.278 75.0862L393.211 77.4074C399.732 78.5956 404.582 80.599 407.76 83.4176C410.965 86.2086 412.582 89.9529 412.609 94.6505C412.582 99.1824 411.228 103.12 408.547 106.464C405.894 109.78 402.261 112.35 397.646 114.173C393.059 115.97 387.822 116.868 381.936 116.868C372.21 116.868 364.597 114.878 359.098 110.899C353.626 106.92 350.573 101.669 349.937 95.1479H372.652C372.956 97.1651 373.95 98.7264 375.636 99.8317C377.349 100.909 379.505 101.448 382.102 101.448C384.202 101.448 385.929 101.089 387.283 100.371C388.665 99.6521 389.37 98.6297 389.397 97.3033C389.37 96.0874 388.762 95.1203 387.574 94.4018C386.413 93.6834 384.589 93.1031 382.102 92.6609L370.828 90.6713C364.334 89.5384 359.471 87.383 356.238 84.2052C353.004 81.0273 351.402 76.9376 351.429 71.936C351.402 67.5147 352.562 63.7704 354.911 60.7031C357.288 57.6082 360.673 55.2594 365.066 53.6566C369.488 52.0263 374.724 51.2111 380.776 51.2111C389.978 51.2111 397.231 53.1178 402.537 56.9312C407.87 60.7446 410.675 66.0225 410.951 72.765ZM459.344 52.0401V68.62H417.397V52.0401H459.344ZM425.521 36.7866H448.401V95.2308C448.401 96.1151 448.553 96.8612 448.857 97.4691C449.161 98.0494 449.631 98.4915 450.266 98.7955C450.902 99.0718 451.717 99.21 452.712 99.21C453.403 99.21 454.204 99.1271 455.116 98.9613C456.056 98.7955 456.746 98.6573 457.189 98.5468L460.505 114.629C459.482 114.933 458.018 115.306 456.111 115.748C454.232 116.191 451.994 116.481 449.396 116.619C444.146 116.895 439.738 116.356 436.174 115.002C432.609 113.621 429.928 111.452 428.132 108.495C426.336 105.538 425.466 101.835 425.521 97.3862V36.7866Z" fill="white"/>
</svg>
